# xmcd CD database file
#
# Track frame offsets:
#	182
#	11455
#	22025
#	33627
#	47250
#	60817
#	73615
#	83812
#	93167
#	104340
#	117545
#	132720
#	144880
#	154292
#	162325
#	174090
#
# Disc length: 2493 seconds
#
# Revision: 4
# Processed by: cddbd v1.5.2PL0 Copyright (c) Steve Scherf et al.
# Submitted via: CDex 1.50
#
DISCID=c809bb10
DTITLE=Various Artist - 16 All-Time Country Greats - CD 6
DYEAR=1989
DGENRE=Country
TTITLE0=Ferlin Husky - Country Music Is Here To Stay
TTITLE1=Frankie Laine - Sixteen Tons
TTITLE2=Patsy Cline - Walking After Midnight
TTITLE3=Kenny Rogers - I'm Gonna Sing You A Sad Song Suzie
TTITLE4=Willie Nelson - You'll Always Have Someone
TTITLE5=Faron Young - I'm A Free Man Now
TTITLE6=Dave Dudley - Seven Lonely Days
TTITLE7=Jeannie C. Riley - The Girl Most Likely
TTITLE8=Wynn Stewart - It's Such A Pretty World Today
TTITLE9=Alabama - Patches
TTITLE10=Earl Thomas Conley - The Night They Drove Old Dixie Down
TTITLE11=Johnny Cash - Next In Line
TTITLE12=Del Wood - Are You From Dixie
TTITLE13=Roger Miller - Dear Heart
TTITLE14=Webb Pierce - High Geared Daddy
TTITLE15=Freddy Fender - Silver Wings
EXTD=YEAR: 1989
EXTT0=
EXTT1=
EXTT2=
EXTT3=
EXTT4=
EXTT5=
EXTT6=
EXTT7=
EXTT8=
EXTT9=
EXTT10=
EXTT11=
EXTT12=
EXTT13=
EXTT14=
EXTT15=
PLAYORDER=
